<svg viewBox="0 0 512 512" xmlns="http://www.w3.org/2000/svg">
  <path fill="#81C784" d="M256,0C114.6,0,0,114.6,0,256s114.6,256,256,256s256-114.6,256-256S397.4,0,256,0z M256,464C141.3,464,48,370.7,48,256S141.3,48,256,48s208,93.3,208,208S370.7,464,256,464z"/>
  <path fill="#81C784" d="M256,80c-97,0-176,79-176,176s79,176,176,176s176-79,176-176S353,80,256,80z M256,416c-88.2,0-160-71.8-160-160s71.8-160,160-160s160,71.8,160,160S344.2,416,256,416z"/>
  <g transform="translate(128, 128) scale(0.5)">
    <path fill="#81C784" d="M358.408,132.806c-17.392-41.261-80.604-54.014-141.185-28.48c-56.225,23.702-90.418,72.044-81.14,111.865 c0.415,2.929,1.377,5.954,2.944,9.087c0.804,1.91,1.708,3.761,2.706,5.55c18.241,37.827,26.862,69.947,32.894,99.554 c11.091,54.453,12.077,82.24,11.983,104.85c-0.002,0.693,0.018,1.338,0.051,1.952c1.037,41.49,34.976,74.816,76.717,74.816 c42.404,0,76.771-34.374,76.771-76.768c0-22.996-10.826-41.587-26.136-57.683c-1.367-1.735-3.305-4.073-3.67-4.61 c-6.611-9.774-10.118-14.601-14.568-29.136c-11.501-37.568,5.945-85.597,33.548-119.235c0.696-0.844,0.566-0.675,0.199-0.217 C359.27,192.207,369.123,158.224,358.408,132.806z"/>
    <path fill="#81C784" d="M368.14,1.151c-25.09,0-45.432,20.338-45.432,45.432c0,25.088,20.342,45.426,45.432,45.426 c25.088,0,45.432-20.338,45.432-45.426C413.572,21.489,393.228,1.151,368.14,1.151z"/>
    <path fill="#81C784" d="M268.367,68.434c18.892,0,34.214-15.318,34.214-34.217C302.581,15.325,287.259,0,268.367,0 c-18.898,0-34.22,15.325-34.22,34.217C234.148,53.115,249.469,68.434,268.367,68.434z"/>
    <path fill="#81C784" d="M189.291,85.687c17.786,0,32.204-14.421,32.204-32.204c0-17.789-14.418-32.204-32.204-32.204 c-17.786,0-32.207,14.415-32.207,32.204C157.084,71.266,171.505,85.687,189.291,85.687z"/>
    <path fill="#81C784" d="M155.936,102.362c0-15.88-12.875-28.751-28.754-28.751c-15.88,0-28.754,12.872-28.754,28.751 c0,15.885,12.875,28.757,28.754,28.757C143.061,131.118,155.936,118.246,155.936,102.362z"/>
  </g>
</svg>
