<?xml version="1.0" encoding="utf-8"?>
<!-- Generator: Adobe Illustrator 18.0.0, SVG Export Plug-In . SVG Version: 6.00 Build 0)  -->
<!DOCTYPE svg PUBLIC "-//W3C//DTD SVG 1.1//EN" "http://www.w3.org/Graphics/SVG/1.1/DTD/svg11.dtd">
<svg version="1.1" id="_x32_" xmlns="http://www.w3.org/2000/svg" xmlns:xlink="http://www.w3.org/1999/xlink" x="0px" y="0px"
	 viewBox="0 0 512 512" style="enable-background:new 0 0 512 512;" xml:space="preserve">
<style type="text/css">
	.st0{fill:#4B4B4B;}
</style>
<g>
	<polygon class="st0" points="275.786,333.701 264.819,300.464 256.037,273.434 255.971,273.645 255.885,273.384 236.44,333.592 
		201.37,333.752 173.023,333.752 173.198,333.881 172.929,333.881 224.174,370.975 213.374,404.735 204.731,431.34 204.905,431.211 
		204.823,431.468 255.944,394.191 307.649,431.757 287.842,371.154 316.117,350.414 339.054,333.752 338.833,333.752 
		339.052,333.592 	"/>
	<polygon class="st0" points="181.908,105.852 330.241,105.852 361.249,28.779 372.827,0.16 372.763,0.16 372.827,0 202.44,0.16 
		139.214,0.16 139.237,0.219 139.064,0.219 	"/>
	<path class="st0" d="M122.378,238.328c21.028-22.396,47.018-39.327,75.283-49.227c0.14-0.051,0.277-0.109,0.42-0.16h-0.002
		c0.051-0.02,0.1-0.043,0.15-0.058L132.977,27.35l-4.64-11.063l-1.192-2.951l-0.033,0.027l-0.064-0.152L54.3,70.51l67.907,167.997
		L122.378,238.328z"/>
	<path class="st0" d="M333.676,139.733l-18.666,46.596l-1.04,2.572c0,0,0.006,0.004,0.008,0.004l-0.059,0.148
		c28.35,9.658,54.544,26.682,75.754,49.235l0.172,0.18L457.7,70.323l-57.296-44.812l-15.498-12.176l-0.018,0.043l-0.131-0.106
		L333.676,139.733z"/>
	<path class="st0" d="M256.037,204.79c-84.701,0-153.611,68.906-153.611,153.603c0,84.701,68.91,153.607,153.611,153.607
		c84.701,0,153.611-68.906,153.611-153.607C409.648,273.696,340.738,204.79,256.037,204.79z M256.037,462.18
		c-57.23,0-103.791-46.557-103.791-103.787c0-57.226,46.561-103.786,103.791-103.786c57.23,0,103.79,46.561,103.79,103.786
		C359.828,415.623,313.267,462.18,256.037,462.18z"/>
</g>
</svg>
